<svg xmlns="http://www.w3.org/2000/svg" width="1920" height="426" fill="none"><path fill="#231C00" d="M1017.99 425.466h-8.26v-7.914h8.26v7.914Zm-957.877-.273h-8.256v-7.915h8.256v7.915Zm1356.937-16.8h-8.34c-.02.194-.03.386-.03.577-.02.19-.02.38-.03.567a646.267 646.267 0 0 1-.06 1.109l-.03.542-.03.537c-.01.178-.02.355-.02.532l-.03.526-.03.525c-.01.174-.02.348-.02.521l-.03.521-.03.519-.03.521c0 .173-.01.348-.02.522l-.03.525-.03.527h-8.12v-17.032h16.91v8.461Zm368.62.028h1.55l.52.001.53.001h.52l.52.001.37.001v8.526h-8.02v-8.531h3.5l.51.001ZM962.126 1.023H1920v372.815h-17.56v8.436h-8.24l-.03-.531c0-.176-.01-.351-.02-.526a1606.506 1606.506 0 0 0-.06-1.045l-.06-1.041-.03-.522c-.01-.174-.01-.349-.02-.524l-.03-.526-.03-.532a573.008 573.008 0 0 1-.12-2.183l-.03-.567-.03-.577h-8.64v-8.297h-8.24l-.03.531c-.01.176-.01.351-.02.526l-.03.523-.03.522-.03.52-.06 1.043c-.01.175-.01.35-.02.525l-.03.527-.03.531-.03.536-.03.542a923.387 923.387 0 0 0-.12 2.248h-8.5v8.452h-8.78v-17.038l-8.29-.001c-.01.177-.02.354-.02.529l-.03.524-.03.523-.05 1.039c-.01.173-.01.347-.02.52l-.03.521-.03.523c0 .175-.01.351-.02.528l-.03.531c-.01.177-.02.356-.02.535l-.03.543-.03.55-.03.557c0 .188-.01.377-.02.568l-.03.577h-8.08v8.678h8.03v8.676h-8.47v8.458l-.96.008c-.36.004-.73.006-1.09.009l-1.09.011c-.36.003-.73.005-1.09.009l-1.09.009-1.1.01-3.27.029c-.36.004-.73.006-1.09.009l-2.18.02-1.09.01-1.09.009-1.09.009-.96.01v8.512h-8.66c-.01-.138-.01-.276-.01-.413 0-.184-.01-.367-.01-.55 0-.183-.01-.366-.01-.549 0-.183-.01-.367-.01-.55 0-.183 0-.366-.01-.549 0-.183 0-.366-.01-.55 0-.183 0-.365-.01-.548l-.01-1.1c-.01-.183-.01-.366-.01-.549-.01-.183-.01-.367-.01-.55l-.02-1.098c0-.183-.01-.367-.01-.55 0-.183-.01-.366-.01-.549 0-.135 0-.271-.01-.406l-.95.001-3.24.005-2.16.002-1.08.002-1.08.001-1.08.001-1.08.001-1.08.001-2.16.001-1.08.001-1.09.001h-.92v-17.474h-26.41v-8.549h-8.46v8.808h-8.9v8.163h-8.7v-8.645h-17.43v-16.249c0-.308 0-.616.01-.924h-8.44v17.556h-26.22v8.293h-8.54v-17.007h-8.5v8.663h-8.67v8.274h-8.8v-8.274h-8.54c0 .319 0 .638-.01.957 0 .364 0 .728-.01 1.092v1.091l-.02 2.183c-.01.364-.01.728-.01 1.092-.01.364-.01.727-.01 1.091-.01.364-.01.728-.01 1.092-.01.364-.01.728-.01 1.092 0 .363-.01.727-.01 1.09 0 .364-.01.729-.01 1.092 0 .364-.01.728-.01 1.092 0 .364-.01.728-.01 1.092 0 .363-.01.727-.01 1.091 0 .363 0 .728-.01 1.091 0 .319 0 .637-.01.956h-17.32v-8.524h-8.27v-8.805h8.26v-8.832h-8.76v-8.125h-8.71v17.198h-8.29c0 .184-.01.368-.02.549l-.03.542c0 .181-.01.36-.02.539l-.03.532c0 .177-.01.353-.02.529-.01.176-.02.352-.02.527l-.03.527c-.01.175-.02.349-.02.524l-.03.527c-.01.175-.01.351-.02.527l-.03.529c-.01.177-.01.355-.02.533l-.03.538c0 .179-.01.361-.02.542l-.03.549c-.01.185-.01.37-.02.557h-17.06v8.38h-4.03l-.56-.001h-1.11l-.55-.001h-.55l-.55-.001-1.1-.002h-.4v.128l-.15-.001v-.134.007h.15v-.412c0-.181.01-.361.01-.541v-1.622l.02-2.16v-1.081c0-.18.01-.36.01-.54v-1.621c.01-.132.01-.265.01-.398h-43.48v-8.51h-8.53v16.761h-8.71v-16.719h-8.71v16.687h-8.72v-7.985h-17.24v8.283h-.96l-.55-.001h-1.1l-.55-.001h-1.09l-1.1-.001h-1.1l-.55-.001h-1.51v.136-.001h-.13v-.136.001h.13v-8.721h-17.6v-8.462h-8.42v8.267h-8.8v-8.267h-25.85v8.327h-8.86v-16.706h-8.73v8.406h-25.94v25.83h-8.79v-26.075h-8.26l-.03-.549c0-.181-.02-.361-.03-.541 0-.179-.01-.357-.02-.534l-.03-.529-.03-.523c0-.174-.01-.347-.02-.519l-.03-.514-.03-.509c-.01-.17-.01-.338-.02-.506l-.03-.502-.03-.499c0-.166-.01-.331-.02-.496l-.03-.495c-.01-.164-.01-.328-.02-.492l-.03-.491a8.025 8.025 0 0 1-.02-.49h-8.72v8.063h-8.52v-16.697h-8.7v16.668h-8.7v-16.818h-8.53v25.466h-17.39v-16.935h-8.74v26.006h-4.99l-.52-.001h-2.92v8.776h-9.02v8.235h-8.22c0-.178-.01-.355-.02-.532l-.03-.528-.03-.526c0-.175-.01-.349-.02-.523l-.03-.522c-.01-.174-.01-.348-.02-.522l-.03-.521c-.01-.175-.01-.351-.02-.526l-.03-.526a9.35 9.35 0 0 1-.02-.53l-.03-.536-.03-.542-.03-.547c0-.184-.01-.369-.02-.556a1000.927 1000.927 0 0 1-.06-1.139h-8.51v-8.447h-8.27v-8.804h8.27v-8.404l-.56-.027-.56-.028-.54-.026-.54-.025-.53-.027-.53-.025-.52-.026-.51-.024-.51-.025-.52-.025-1.01-.049-.51-.025-.51-.024-.51-.025-.51-.025-.03-.578c-.02-.192-.03-.382-.04-.571a1006.245 1006.245 0 0 0-.06-1.124l-.03-.553-.03-.549-.03-.544c-.01-.181-.03-.361-.03-.54-.01-.179-.03-.359-.03-.537-.02-.178-.02-.356-.03-.533-.02-.177-.02-.354-.03-.53-.02-.176-.02-.353-.03-.528l-.03-.526-.03-.525-.03-.523a5.355 5.355 0 0 1-.02-.4h-17.23v8.495h-17.3v-16.714h-8.65V391.1h-8.76v-8.778h-17.25v-8.4h-.41l-.55-.001h-1.1l-.55-.001h-1.09l-1.1-.001h-1.1l-.55-.001h-1.09l-.55-.001h-.41v16.927h-9.01v-8.088h-8.21a840.48 840.48 0 0 1-.09 1.583 9 9 0 0 0-.02.518l-.03.514a1490.255 1490.255 0 0 1-.06 1.019 8.49 8.49 0 0 0-.02.504l-.03.502-.03.499c-.01.166-.02.331-.02.497l-.03.496-.03.495c0 .164-.01.328-.02.493l-.03.493-.03.493h-17.19v-8.27h-8.8v-8.517h-8.25l-.03.532-.03.527c-.01.175-.01.35-.03.523-.01.173-.01.346-.02.518l-.03.514-.03.511c-.01.17-.01.339-.02.507l-.03.504-.03.502c-.01.167-.02.333-.02.499l-.03.496-.03.495c0 .165-.01.329-.02.493l-.03.492c-.01.163-.01.327-.02.491l-.03.489h-8.69v-16.744h-8.25c-.01.179-.02.357-.02.534l-.03.53-.03.528c0 .174-.01.349-.02.523l-.03.523c0 .175-.01.349-.02.523a9.14 9.14 0 0 0-.02.523l-.03.525-.03.527c0 .177-.01.355-.02.532l-.03.537c0 .179-.01.361-.02.542a923.387 923.387 0 0 0-.06 1.107c0 .187-.01.376-.02.566l-.03.577h-17.23v8.529h-17.34v17.215h-8.47v-8.812h-8.91v-8.246l-.55-.028-.54-.028-1.07-.054-.54-.027-.52-.027-1.07-.054-.53-.026-.53-.027-.54-.028-.55-.027-.55-.028-.56-.029-.57-.029-.58-.029v-16.864h-16.87v8.593h8.01v8.703h-8.41v8.554h-8.48v16.925h-8.81v-16.932h-8.669v-8.663h-16.938v8.677h8.083v16.979h-8.561v-8.473h-8.446v-8.821h-8.495v-8.541h8.334v-8.481h-8.229v-.358h-13.417v8.437h-8.233l-.029-.53-.029-.528-.028-.523-.028-.522-.057-1.041-.028-.521-.028-.524-.03-.527-.028-.531-.029-.536-.03-.541-.03-.55a642.809 642.809 0 0 1-.06-1.123l-.033-.577h-8.639v-8.297h-8.234l-.029.53-.028.527-.029.523-.028.522-.057 1.041-.028.523-.028.523-.03.528-.028.531-.029.536-.029.542-.03.549-.031.557-.03.566-.032.575h-8.502v8.452h-8.774v-17.038h-8.289l-.026.529-.027.524-.025.522-.026.521-.026.519-.025.52-.026.521-.026.524-.026.526-.027.531-.026.536-.026.543a91.247 91.247 0 0 0-.056 1.107l-.028.567-.029.578h-8.082v8.677h8.039v8.677h-8.479v8.458l-.954.008-2.182.019-1.092.01-1.091.009-1.091.01-3.273.029-1.092.009-2.181.019-1.092.01-1.091.01-1.092.01-.959.008v8.512h-8.659l-.007-.413-.009-.549-.009-.55-.009-.549-.01-.549-.009-.55-.009-.549-.018-1.098a99.082 99.082 0 0 0-.01-.55l-.009-.55-.018-1.099-.01-.549-.009-.549-.006-.407-.951.001-3.241.005-1.08.001-1.08.002-1.081.001-1.08.001-1.081.001-1.08.002-1.081.001-2.162.001-1.081.001-1.082.001h-.927v-17.475h-26.405v-8.548h-8.46v8.807h-8.9v8.163h-8.702v-8.644h-17.431v-4.496l.001-1.099v-4.321l.001-1.065v-1.059l.001-1.057v-1.053l.001-1.05.001-1.049.001-.924h-8.431v17.556h-26.225v8.293h-8.535v-17.007h-8.5v8.663h-8.67v8.273h-8.804v-8.273h-8.537l-.009.957-.01 1.092-.008 1.091-.01 1.091-.01 1.092-.009 1.092-.009 1.091-.01 1.091-.009 1.092-.02 2.184-.008 1.091-.02 2.183-.009 1.091-.008.955h-17.325v-8.523h-8.273v-8.805h8.267v-8.832h-8.766v-8.125h-8.711v17.197h-8.281l-.027.55-.024.542-.026.538-.024.533-.024.53-.025.527-.073 1.576-.024.527-.025.53-.025.533-.025.537-.025.543-.025.55-.026.556h-17.054v8.379H628.7l-.56-.001h-1.112l-.552-.001h-.552l-.55-.001-.548-.001h-.949l.002-.413c0-.18.003-.36.003-.541l.003-.54c0-.18 0-.361.003-.541 0-.18 0-.36.003-.54 0-.18 0-.361.003-.541l.014-2.7.003-.541c0-.18.004-.359.004-.539l.002-.54c.003-.18.004-.36.004-.54l.003-.399h-43.48v-8.509h-8.533v16.759h-8.706v-16.718h-8.707v16.686h-8.718v-7.984h-17.243v8.282h-.961l-.549-.001h-1.646l-.549-.001h-.549l-1.097-.001h-1.098l-.549-.001h-1.509v.137l-.001-.001h-.135v-.137l.001.001h.135v-8.72h-17.604v-8.462h-8.42v8.266h-8.802v-8.266h-25.845v2.808c0 .18-.003.359-.003.537v3.623l-.002.506v.854h-8.863V373.93h-8.73v8.406h-25.938v25.831h-8.787v-26.076h-8.259l-.026-.548c-.009-.182-.021-.363-.03-.542a943.558 943.558 0 0 0-.054-1.063l-.026-.524-.028-.518-.026-.514-.027-.51-.027-.505-.027-.503-.027-.498c-.005-.166-.015-.332-.024-.497l-.026-.494a26.993 26.993 0 0 1-.024-.492 1467.998 1467.998 0 0 0-.054-.982h-8.718v8.064h-8.522v-16.697h-8.695v16.669h-8.697v-16.819h-8.533v25.466h-17.387v-16.936h-8.745v26.006h-8.432v8.776h-9.017v8.236h-8.214l-.027-.533a1834.746 1834.746 0 0 0-.053-1.054c-.006-.174-.016-.349-.025-.523l-.026-.522-.028-.522a30.365 30.365 0 0 0-.023-.522 1783.344 1783.344 0 0 1-.054-1.052c-.009-.175-.014-.352-.023-.53l-.028-.536-.026-.541-.027-.548c-.009-.183-.018-.369-.03-.555l-.027-.565-.026-.574h-8.513v-8.447h-8.268v-8.804h8.268v-8.404l-.564-.028-.552-.027-.546-.026-.536-.026-.531-.026-.526-.026-.521-.024-.516-.025-.511-.025-.512-.025-.507-.025-.508-.024-.51-.024a74.55 74.55 0 0 0-1.016-.05l-.514-.026a38.59 38.59 0 0 1-.032-.577c-.012-.191-.025-.382-.033-.571l-.034-.566c-.009-.187-.02-.373-.032-.558-.009-.186-.021-.37-.03-.554-.012-.183-.02-.366-.032-.549a32.427 32.427 0 0 0-.031-.544l-.029-.54c-.009-.179-.021-.358-.03-.536-.012-.178-.021-.356-.03-.533a48.412 48.412 0 0 1-.03-.53 31.846 31.846 0 0 1-.03-.529l-.029-.526c-.009-.175-.019-.35-.031-.524l-.026-.524a17.778 17.778 0 0 1-.023-.399h-17.226v8.495h-17.306v-16.715h-8.649v25.579h-8.752v-8.777h-17.252v-8.401h-.414l-.549-.001h-1.646l-.546-.001h-3.293l-.549-.001h-.549l-.549-.001h-.411v16.926h-9.008v-8.088h-8.209c-.012.179-.02.357-.029.534l-.027.527c-.012.175-.021.349-.03.522l-.027.519-.026.514c-.009.17-.019.341-.031.51l-.026.508a793.67 793.67 0 0 1-.054 1.006l-.027.499-.026.497-.028.496-.026.495c-.006.165-.016.329-.025.494l-.026.493-.027.493h-17.193v-8.271h-8.804v-8.516h-8.25a1866.057 1866.057 0 0 1-.054 1.059c-.009.175-.017.349-.029.523l-.028.517-.026.515-.027.511-.027.507-.027.504-.026.501-.028.499c-.009.166-.014.332-.023.497l-.028.495-.026.493-.027.491c-.009.164-.015.328-.024.491l-.027.49h-8.691V365.15h-8.248l-.026.535-.027.531c-.006.176-.015.351-.024.526-.009.175-.018.35-.024.525l-.026.522c-.006.174-.016.348-.025.523a30.04 30.04 0 0 0-.023.523l-.028.524c-.009.176-.014.352-.023.529-.009.176-.019.353-.027.531a31.09 31.09 0 0 0-.024.536 991.95 991.95 0 0 0-.054 1.092l-.026.557a1129.033 1129.033 0 0 0-.054 1.143h-17.231v8.529h-17.338v17.215h-8.472v-8.811H86.29v-8.246l-.552-.029-.543-.027-.536-.027-.537-.027a619.563 619.563 0 0 0-1.06-.053L82 382.217l-.53-.028c-.18-.008-.358-.018-.537-.027a650.42 650.42 0 0 0-1.086-.055l-.552-.028-.56-.028-.57-.03-.58-.029v-16.863H60.72v8.593h8.002v8.704h-8.409v8.553h-8.479v16.924h-8.805v-16.931h-8.67v-8.663h-16.94v8.676h8.084v16.98h-8.56v-8.474h-8.45v-8.82H0v-8.541h8.334v-8.482H.104V.75h962.022v.273Zm350.624 415.861h-8.07v-8.148h8.07v8.148Zm78.01-.011h-16.93v-8.298h16.93v8.298Zm-225.4-.001h-8.28v-8.296h8.28v8.296Zm-69.08-.025h-8.29v-8.276h8.29v8.276Zm719.62 0h-8.3v-8.276h8.3v8.276Zm-1356.719-8.728h-8.35c-.012.194-.02.387-.029.577-.012.191-.022.38-.031.568-.008.187-.017.374-.029.558a687.136 687.136 0 0 1-.056 1.093l-.028.536-.026.532-.027.527c-.008.175-.018.35-.027.524l-.027.522-.027.52-.027.52-.026.52-.028.523-.026.524-.026.527h-8.128v-17.032h16.918v8.461Zm368.619.028h1.031l.52.001h.519l.522.001h.521l.524.001.37.001v8.527h-8.026v-8.532h3.506l.513.001Zm-472.928 8.463h-8.061v-8.147h8.061v8.147Zm78.016-.009h-16.927v-8.298h16.927v8.298Zm-225.403-.001h-8.277v-8.297h8.277v8.297Zm-69.076-.027h-8.298v-8.275h8.298v8.275Zm719.618 0h-8.298v-8.275h8.298v8.275Zm299.053-7.997h-.13v.001-.137h.13v-.001.137Zm216.75-.001h-.13v-.004.004-.136h.13v.136Zm-277.55-.14h.14v.136-.006.006h-.14v-.137.001Zm719.76.135-.01-.008-.01-.009-.01-.014.03.03v.002h-.14v-.137h.14v.136Zm-442.31-.028v.005l.01-.015c.01-.004.01-.007.01-.011l.01-.004-.03.025Zm-216.73-.017-.02.018v.003l.02-.025v.004Zm-60.64-.009c.01.004.01.007.02.011v.008-.007l-.01-.008-.01-.008-.01-.007c.01.003.01.007.01.011Zm719.61-.014-.01-.009-.05-.052v-.002l.06.063Zm-719.68-.055c.01.003.01.005.01.008.01.003.01.007.02.011v.004l-.02-.019-.01-.008v.004Zm277.53.01-.02.013c.01-.003.01-.007.01-.01.01-.003.01-.005.01-.008l.01-.004-.01.009Zm-216.76 0v.004c0-.003.01-.006.01-.008l-.01.004Zm-.11-.017h-8.25v-8.28h8.25v8.28Zm-52.02-.005h-8.51v-8.502h8.51v8.502Zm684.75-.143c0 .001.01.003.01.005h.15c0 .043-.01.086-.01.129v-.001h-.15v-.134.001Zm-1590.472.011h-.136l-.001.001v-.137h.135l.002-.001v.137Zm216.753 0h-.138v-.136h.137l.001-.001v.137Zm-.136-.001.002-.001.002-.003-.004.004Zm1374.605-8.387.56.01.56.011 1.13.019.56.011.57.01.56.01.56.01.57.011.56.01 1.69.032.57.011.41.007v.37l.01.994v6.871h-4.66l-.56-.001h-.55l-.55-.001h-.55l-.55-.001h-.54l-.55-.001-.39-.001v-.412c.01-.181.01-.362.01-.542.01-.18.01-.361.01-.541.01-.181.01-.361.01-.541.01-.181.01-.362.01-.542.01-.181.01-.361.01-.541.01-.181.01-.361.01-.541l.06-2.705.02-1.081c0-.181.01-.361.01-.541 0-.134.01-.268.01-.402l.43.007Zm-1651.883 8.383-.006-.005c.002.001.002.002.002.003a.01.01 0 0 1 .004.002h-.138v-.137h.138v.137Zm719.617-.001-.008-.009-.009-.009-.014-.013.025.026.005.004.001.002h-.137v-.137l.002.001.004.005.007.006.009.01.01.009.012.012.012.012.013.013.012.013.013.012-.025-.025-.008-.009-.009-.009-.009-.008-.017-.017-.008-.009-.009-.008-.009-.009h.135l.002.137Zm853.496.001h-8.07v-8.147h8.07v8.147Zm-572.2-.006h-8.09v-8.134h8.09v8.134Zm436.6-8.542h2.05l.51.001h.52l.52.001h.52l.53.001.52.001h.37v8.527h-8.03v-8.532h1.98l.51.001Zm-1160.177 8.493-.027.026-.002.004.014-.014a.051.051 0 0 1 .013-.012.019.019 0 0 1 .006-.007l-.004.003Zm-216.761.009-.009.009-.009.009-.001.002.001-.001a.034.034 0 0 1 .012-.012.057.057 0 0 1 .011-.011l-.005.004Zm-60.633-.01.02.02-.004-.007-.009-.009-.01-.008-.007-.007.01.011Zm1052.891-.036h-8.25v-8.279h8.25v8.279Zm138.7 0H1322v-8.133h8.08v8.133Zm164.74-.002h-8.27v-8.299h8.27v8.299Zm164.73 0h-8.27v-8.299h8.27v8.299Zm190.75-.001h-8.28v-8.3h8.28v8.3Zm-1711.879-.029a.065.065 0 0 1 .009.008c.003.003.006.007.011.01l.005.004-.009-.009-.01-.008-.009-.009.003.004Zm277.531.001-.009.009-.013.012.01-.008.014-.014-.002.001Zm-216.762.009-.002.004.007-.008-.005.004Zm1148.5 0h-8.27v-8.251h8.27v8.251Zm-294.76-.008h-8.3v-8.275h6.86l.53-.001h.91v8.276Zm424.84 0h-8.3v-8.275h6.85l.53-.001h.92v8.276Zm147.23-.006h-8.15v-8.061h8.15v8.061Zm-1425.929-.003h-8.25v-8.28h8.25v8.28Zm-52.015-.006h-8.509v-8.502h8.509v8.502Zm684.756-.138h.001l.149.001-.003.128h-.001v-.001h-.151v-.133l.005.005Zm905.858.11h-8.24v-7.987h8.24v7.987Zm-905.117-8.491.563.01 1.127.02.563.01.563.01.564.01.563.011.564.01 1.127.021.564.01 1.127.021.564.011.417.008.001.369.001.497.001.498v.499l.001.502v.505l.001.509v1.032l.001.524v3.299h-4.658l-.559-.001h-.553l-.552-.001h-1.096l-.547-.001-.544-.001h-.394l.007-.413.01-.542.02-1.082.011-.542.011-.541.009-.541.043-2.164.011-.54.032-1.623.009-.401.428.007Zm-78.772 8.382h-8.061v-8.145h8.061v8.145Zm-572.197-.005H173.5v-8.133h8.084v8.133Zm436.604-8.542h2.043l.519.001h.519l.519.001h1.044a90.829 90.829 0 0 0 .892.002v8.527H615.7v-8.532h1.981l.507.001Zm-384.684 8.457h-8.251v-8.281h8.251v8.281Zm138.7-.001h-8.083V399.8h8.083v8.133Zm164.744-.002h-8.274v-8.299h8.274v8.299Zm164.733 0h-8.276v-8.299h8.276v8.299Zm190.743-.001h-8.276v-7.383l-.001-.526v-.39h8.277v8.299Zm-502.604-.02h-8.279v-8.251h8.279v8.251Zm130.074-.007h-8.299v-8.275h6.854l.529-.001h.916v8.276Zm-424.835-.001H86.76v-8.274h6.854l.528-.001h.916v8.275Zm572.064-.005h-8.146v-8.06h8.146v8.06Zm112.674-.037h-8.242v-7.987h8.242v7.987Zm1019.093-7.785-.01-.001v-.004l-.15-.003v-.127h.16v.135Zm-.08-.069c0 .004.01.008.01.012.01.004.01.008.01.012.01.004.01.008.02.012 0 .003.01.007.01.01 0 .002 0 .003.01.005l-.01-.003c0-.004-.01-.007-.01-.011 0-.004-.01-.008-.01-.012l-.03-.025c-.01-.004-.01-.009-.02-.013 0-.004-.01-.008-.01-.013l.03.026Zm-693.74-.075-.01-.002v-.004l-.01-.016c-.01-.003-.01-.006-.02-.01v-.006.005l.01.008.02.018.01.009h-.14v-.138.004-.005h.14v.137Zm242.76-.002c0-.001 0-.002-.01-.004v-.007.006l.01.009h-.14v-.139h.14v.135Zm69.36.004v-.001h-.14v-.137h.14v.138Zm-234.07-.143v.011c-.01.001-.01.003-.01.005l.01-.007.01-.009v.137h-.14l.03-.026v-.005c0 .003-.01.005-.01.007 0 .004-.01.007-.01.01v.006c-.01.002-.01.004-.01.005v-.135h.14l-.01.001Zm234.07.137-.02-.016v-.005l.02.021Zm372.81-.019-.14-.003v-.136h.14v.139Zm-442.24-.044.01.008.03.026.01.008-.02-.018c-.01-.004-.01-.009-.01-.013-.01-.004-.01-.009-.02-.013v.002Zm138.79-.094v-.001.136h-.14v-.136h.14v.001Zm164.72.004c.01-.001.01-.003.01-.003v-.002.136h-.14v-.136h.14l-.01.005Zm190.75.129h-.13v.002-.135l.13-.001v-.001.135Zm-875.651-.002-.027-.026-.009-.009-.006-.008-.009-.008-.009-.009-.009-.008-.027-.026-.005-.008-.019-.018-.009-.009-.009-.007h.138v.136Zm86.561-.136h.14v.135l-.01-.004c.01.001.01.003.01.003v.001h-.14v-.136.001Zm598.23.123v.005l.01-.013-.01.008Zm-468.07-.068c0 .004 0 .008-.01.012 0 .004 0 .008-.01.012 0 .004-.01.009-.01.013-.01.005-.01.009-.01.013-.01.004-.01.008-.02.012v.008-.006l.03-.026.01-.008.01-.009.01-.008v-.009l.01-.009-.01.005Zm303.35.051-.01.009v.005-.001c0-.003.01-.006.01-.01.01-.003.01-.007.01-.011l-.01.008Zm-8.57-.002c.01.003.01.006.01.009v-.003l-.01-.013v.007Zm-424.86-.024.02.019v-.006l-.01-.008-.01-.009v.004Zm51.95-.024.01.008v.009l.03.025v-.001l-.03-.025c0-.004 0-.008-.01-.012 0-.003 0-.005-.01-.008l.01.004Zm381.5.033-.01.007c.01-.003.01-.008.02-.011v-.004l-.01.008Zm-69.36-.016.01.009v.007-.002c0-.005-.01-.009-.01-.013 0-.002-.01-.006-.01-.008l.01.007Zm-69.4-.034.02.017.01.008.02.02c-.01-.004-.01-.009-.01-.012-.01-.004-.01-.008-.02-.012v-.01c-.01-.003-.01-.006-.01-.008-.01-.003-.01-.005-.01-.007v-.004.008Zm130.15.041v.004l-.01-.008c.01.001.01.003.01.004Zm173.37-.021c.01-.004.01-.007.02-.012l.02-.022c0-.003 0-.006.01-.009l-.05.043Zm138.75-.021-.01.008-.01.008v.005l.01-.012c0-.003.01-.008.01-.011l.01-.007-.01.009Zm-303.44-.017-.01.008-.01.009-.01.009v.003l.02-.014c0-.004 0-.008.01-.011 0-.003 0-.006.01-.009v-.003l-.01.008Zm-381.59.021v-.007.007Zm-263.927-.005-.002-.001-.004-.004-.148-.003v-.126l.001.001.004.003-.005-.005h.154v.135Zm593.157-.007h-16.98c.01-.142.01-.284.01-.426 0-.187.01-.376.01-.563.01-.188.01-.375.01-.563 0-.188.01-.376.01-.563 0-.188.01-.376.01-.564.01-.188.01-.375.01-.563 0-.188.01-.376.01-.564.01-.187.01-.376.01-.563.01-.188.01-.376.01-.564 0-.187.01-.375.01-.563.01-.188.01-.376.01-.564 0-.187.01-.375.01-.563.01-.188.01-.377.01-.565.01-.188.01-.375.01-.563.01-.188.01-.376.01-.565.01-.138.01-.278.01-.417h.92l2.08-.001 2.09-.002h2.1l1.05-.001h8.58v8.737Zm-381.23-.019c.01.003.01.006.01.009.01.003.01.006.01.009l-.01-.013-.01-.009v.004Zm60.43.017h-6.33l-.53.001h-1.44v-8.275h8.3v8.274Zm242.76 0h-6.33l-.53.001h-1.44v-8.275h8.3v8.274Zm-86.06-.002h8.29v-25.634h-8.29v25.634Zm207.72-.006c0 .002 0 .004.01.006l-.01-.01v.004Zm-294.8.004h-8.28v-8.297h8.28v8.297Zm-342.057-.057.014.013.014.012a.154.154 0 0 0 .013.012l.011.009.007.005a.014.014 0 0 0-.004-.003l-.011-.01a.174.174 0 0 1-.014-.012l-.044-.038.014.012Zm411.537.051h8.27v-8.541h-8.27v8.541Zm563.57-8.112v2.751c0 .183-.01.366-.01.55v4.4c-.01.136-.01.272-.01.407h8.54v-8.521h-8.52v.413Zm-26.18 8.098h-8.25v-8.279h8.25v8.279Zm-17.54-.009h-8.01v-8.254h8.01v8.254Zm-190.64-.065v-.006.006Zm-1434.487-.038-.003-.001c0-.001 0-.003-.003-.005l-.006-.006-.009-.009c-.003-.003-.006-.007-.012-.01l-.006-.006.003.005.009.008.019.017.008.009h-.137v-.138l.006.005c-.001-.001-.003-.003-.003-.005h-.003.137v.136Zm242.761-.001c-.003-.001-.003-.003-.006-.005 0-.002-.003-.004-.006-.006l.004.005.009.009h-.135v-.138h.134v.135Zm69.363.003-.001-.001h-.135v-.136h.138l-.002.137Zm-234.067-.142-.003.004a.017.017 0 0 0-.006.006l-.005.006.017-.016v.136h-.137l.027-.025.003-.006a.038.038 0 0 0-.009.009l-.015.015-.006.004v-.134h.137l-.003.001Zm234.04.116.022.02c-.003-.001-.003-.004-.006-.007a.065.065 0 0 1-.009-.008c-.003-.003-.006-.007-.012-.01l.005.005Zm372.835-.136.002-.001-.002.139-.135-.003v-.137h.137l-.002.002Zm-442.239.094.01.009.008.007.018.018.01.009-.007-.008-.025-.024c-.005-.005-.008-.009-.014-.013l-.006-.007.006.009Zm138.788-.096v.137h-.137v-.137h.137Zm164.725.006.005-.004.001-.001v.136h-.136l.001-.137h.135l-.006.006Zm190.748.13h-.134l-.002.001v-.135l.135-.002.001-.001v.137Zm-875.653-.003-.026-.026-.009-.008-.006-.009-.009-.009-.01-.009-.008-.007-.027-.027-.005-.008-.019-.017-.009-.009-.009-.008h.137v.137Zm86.566-.137h.135v.136l-.005-.004.002.003.003.001h-.136v-.137.001Zm736.956.114-.013.014.009-.008.008-.008-.004.002Zm-606.795-.058a.051.051 0 0 1-.013.012l-.035.038-.016.011-.005.008.006-.006.027-.025.008-.009.01-.008.009-.008.006-.009.009-.009-.006.005Zm862.139.068h-8.13v-8.085h8.13v8.085Zm-558.791-.017-.011.011c.002-.003.007-.005.012-.008l.008-.011-.009.008Zm-8.572-.002.007.005-.011-.011a.02.02 0 0 1 .004.006Zm-372.905-.039.006.007.027.027.009.009-.01-.011-.023-.026c-.006-.004-.009-.008-.012-.011-.002-.003-.007-.006-.01-.008l.013.013Zm-51.953.014c.006.004.008.009.011.013.004.002.006.005.008.007l-.004-.006-.01-.009-.008-.009.003.004Zm940.211.019h-7.99v-8.241h7.99v8.241Zm-506.762-.01-.008.008.014-.012.011-.012-.017.016Zm164.731 0-.004.005.013-.013-.009.008Zm-234.097-.016.008.009.01.008-.003-.003c-.006-.004-.008-.008-.011-.013l-.008-.006.004.005Zm-69.396-.034.01.009.018.018.008.007.011.011-.011-.012-.011-.01-.01-.011-.009-.009c-.003-.002-.006-.005-.006-.007a.022.022 0 0 1-.005-.004l.005.008Zm442.258.007-.008.009-.005.005.013-.012.009-.01-.009.008Zm-138.727.006.005-.004.012-.012.01-.01-.027.026Zm-164.701-.03-.009.008-.008.008-.01.009-.003.004.004-.003c.006-.004.009-.008.012-.012l.011-.01a.038.038 0 0 1 .009-.009l.002-.003-.008.008Zm706.054.023h-8.09v-8.134h8.09v8.134Zm-1087.643-.003-.002-.003-.003-.004.005.007Zm1070.293 0h-16.93v-8.298h16.93v8.298Zm-741.065-.012h-16.05l-.926.001.007-.426c.003-.188.007-.376.013-.564l.009-.562.008-.564.012-.563.009-.564.009-.562c.006-.188.009-.376.012-.564l.009-.564.012-.564.009-.563.011-.564.01-.563c.006-.188.009-.377.012-.564a6682.61 6682.61 0 0 1 .018-.981l.916-.001 2.082-.002 1.044-.001h1.043l1.05-.001h2.1l1.056-.001h7.525v8.737Zm-381.225-.018.01.009.01.009-.014-.013-.009-.009.003.004Zm60.421.018h-8.298v-8.276h8.298v8.276Zm242.765 0h-8.302v-8.276h8.302v8.276Zm121.658-.009.008.007-.011-.011.003.004Zm-207.719.006h8.289v-25.634h-8.289v25.634Zm-87.079-.002h-8.277v-8.297h8.277v8.297Zm69.479-.006h8.274v-8.54h-8.274v8.54Zm563.572-8.113-.001.551-.002 1.1-.001.551-.002.549-.002 1.1-.002.551-.002 1.099-.001.551-.002 1.1-.002.55v.407h8.539v-8.522h-8.521l-.001.413Zm1026.823-.447-.5.027-.49.027-.5.026-.49.028-.5.027-.5.027-.51.028-.5.028-.51.028-.52.028-.52.029-.52.028-.53.03-.54.028-.54.03-.55.03v8.099h-8.74v-16.933h16.96v8.385Zm-1053 8.545h-8.251v-8.278h8.251v8.278Zm-17.542-.009h-8.013v-8.254h8.013v8.254Zm-190.721-.137c0 .001.002.002.002.005h.148l-.001.128-.001-.001h-.151v-.134l.003.002Zm.074.067.008.006-.004-.004-.007-.005.003.003Zm-494.316-.074h-8.134v-8.085h8.134v8.085Zm-52.01-.026h-7.987v-8.241h7.988v8.241Zm199.361-.053h-8.086v-8.133h8.086v8.133Zm-17.351-.003h-16.926v-8.298h16.926v8.298Zm667.626-8.583-.493.026-.494.027-.494.027-.497.027a83.06 83.06 0 0 0-.498.028c-.167.008-.334.019-.501.028l-.504.027-.507.028-.511.028-.514.027-.52.029-.524.029-.53.029-.536.029-.542.03-.549.03v8.099h-8.739v-16.933h16.953v8.385Zm273.319.558h-.13v.001-.136h.13v-.001.136Zm-.07-.059-.03.026v.004-.003c0-.003 0-.007.01-.012 0-.003.01-.007.01-.011 0-.002 0-.004.01-.005v.001Zm.05-.05v-.006c.01-.003.01-.006.01-.009v-.004l-.01.019Zm607.21-.005h8.29c-.01-.138-.01-.276-.01-.414v-2.75c0-.183 0-.367-.01-.551v-2.751c0-.183 0-.366-.01-.55v-1.513h-8.26v8.529Zm-815.257-8.681h8.677v8.671h8.53v-17.507h-8.77v-8.12h-8.437v16.956Zm589.717.37c0 .187-.01.375-.01.562-.01.188-.01.377-.01.565-.01.187-.01.375-.01.562-.01.188-.01.376-.01.563-.01.188-.01.376-.01.563-.01.188-.01.376-.01.563 0 .188-.01.376-.01.563l-.03 1.688c0 .188-.01.375-.01.563l-.04 2.109h8.54v-3.721c0-.184.01-.368.01-.552v-4.279l-.4-.009-1.09-.022-.54-.01-1.08-.022-.54-.011-1.08-.021-.54-.012a97.26 97.26 0 0 1-.54-.011l-1.08-.021-.54-.011-.55-.011-.42-.008v.42Zm51.87 8.301h8.54v-8.537h-8.54v8.537Zm-216.59-.2v.005c-.01.049-.01.098-.01.146h-.12v-.153h.13v.002Zm-.11.13c-.01.002-.01.004-.01.006 0-.002 0-.003.01-.005v-.012.011Zm.02-.024v.001-.001Zm.03-.043v.005-.004c.01-.002.01-.004.01-.005 0 .001 0 .002-.01.004Zm.02-.014c-.01.002-.01.005-.01.007 0-.002 0-.004.01-.006v-.007.006Zm-1174.761.002h-.136l-.001.001v-.137h.135l.002-.001v.137Zm-.105-.033-.003.004.003-.003a.05.05 0 0 1 .013-.011c.003-.004.006-.009.012-.013v-.001l-.025.024Zm.025-.024.002-.002.001-.002-.003.004Zm607.27-.057h8.282l-.001-.414c0-.184-.002-.367-.003-.55l-.001-.55-.002-.55-.001-.551-.002-.549-.001-.551-.002-.55-.001-.55-.001-.551-.004-1.099-.002-.551-.001-.55-.002-.551-.001-.413h-8.257v8.53Zm-815.26-8.681h8.673v8.671H51.7V373.33h-8.775v-8.119H34.49v16.956Zm589.715.369c-.003.188-.007.376-.013.564l-.008.563-.009.563c-.006.187-.009.375-.012.563l-.009.564-.008.562c-.003.187-.01.375-.013.563l-.027 1.688-.011.563-.034 2.109h8.537l.001-.411.003-2.758v-1.105l.001-.55.001-.553v-.552l.001-.552v-1.654l.001-.418-.404-.008-.541-.01-.541-.012-.54-.011-1.623-.032-.54-.011-.541-.011-.541-.011-.54-.011-1.082-.022-.54-.01-.541-.011-.42-.009-.007.42Zm51.876 8.302h8.535v-8.537h-8.535v8.537Zm-216.596-.2-.003.005-.002.147h-.125v-.001l.002-.004.004-.005a.008.008 0 0 1-.004.004l-.002.005v-.152h.133l-.003.001Zm-.092.106h.001-.001Zm.05-.057a.027.027 0 0 1-.005.006l.006-.005.005-.007-.006.006Zm1408.588-8.122h-.13v-.136h.13v.136Zm-736.95-.11h1.45l.54-.001h6.54v-8.532h-8.53v8.533Zm684.94 0h8.53v-8.533h-8.53v8.533Zm-372.81-.015h8.54v-8.272h-8.54v8.272Zm199.42 0h8.53v-8.538h-8.53v8.538Zm8.67-8.669h8.66v8.669h8.54v-8.669h8.67v-2.058l-.01-4.948v-1.513h-25.86v8.519Zm-60.68 4.018v4.635h8.82v-8.76h8.12v-8.719h-8.52v-8.135h-8.42v20.979Zm-680.462 4.503h-.137v-.137h.137v.137Zm568.042-.021h8.03v-7.072c.01-.175.01-.352.01-.527v-.932h-8.04v8.531Zm-568.144-.014-.014.014.011-.01.007-.007-.004.003Zm663.394-.018h3.32l.54.001h1.07l.53.001h.54l.53.001.53.001.52.001h.53l.4.001v-16.869h-8.51v16.863Zm-663.324-.052-.011.01.009-.008.009-.008-.007.006Zm585.124.008h8.25v-8.278h-8.25v8.278Zm-1322.048-.013h8.533v-8.534h-8.533v8.534Zm684.94 0h8.534v-8.534h-8.534v8.534Zm-372.807-.015h8.54v-8.272h-8.54v8.272Zm199.421 0h8.529v-8.538h-8.529v8.538Zm8.671-8.67h8.663v8.67h8.536v-8.67h8.672l-.001-.408-.003-1.65v-.549l-.002-.55-.002-1.65-.004-2.199-.001-.551-.001-.548-.001-.413h-25.856v8.518Zm-60.685 4.019-.001 1.591v3.043h8.825v-8.759h8.123v-8.719h-8.518v-8.136h-8.429v20.98Zm-112.414 4.482h8.024v-3.334c0-.181 0-.362.002-.542v-2.14c.003-.176.004-.353.004-.529v-.527c.003-.176.002-.352.002-.528 0-.175.001-.35.004-.525v-.406h-8.036v8.531Zm95.244-.032h1.679l.549.001h2.172l.536.001h1.065l.531.001.528.001.528.001.528.001h.403v-16.869h-8.519v16.863Zm-78.197-.044h8.25v-8.278h-8.25v8.278Zm1287.315-8.137h2.49l.53-.001h5.27v-8.275h-8.29v8.276Zm-858.345-.001h8.813v-8.745h8.185v-8.208h-16.998v16.953Zm173.405 0h8.3v-8.275h-8.3v8.275Zm34.68 0h8.53v-8.533h-8.53v8.533Zm121.38 0h8.3v-8.275h-8.3v8.275Zm-138.44-.004h8.28v-8.298h-8.28v8.298Zm598.24 0h8.28c0-.13-.01-.26-.01-.389v-7.909h-8.27v8.298Zm-269.23-.157.42.008 1.13.019.56.011 1.13.02.56.009.57.011.56.01.56.01.56.009.57.01.56.011.56.01.56.01.43.007v-8.32h-8.73v8.165Zm295.27.127h8.01v-8.254h-8.01v8.254Zm-242.84-.102h16.81v-8.286a97.538 97.538 0 0 1-1.07-.052l-.52-.027-.53-.026-.52-.026-.52-.026-.53-.026-.52-.027-.53-.026-.54-.026-.53-.027-.55-.027c-.18-.009-.36-.019-.55-.027l-.56-.028-.57-.029-.58-.028v-8.202h-8.19v16.916Zm-295.2-.032.41.001.55.001h.54l.55.001.55.001h1.66l.55.001h3.92v-8.4h-8.73v8.395Zm494.4-.091h8.25v-8.278h-8.25v8.278Zm-1556.137-.013h1.443l.529-.001h6.329v-8.275h-8.301v8.276Zm34.68 0h1.455l.534-.001h6.544v-8.532h-8.533v8.533Zm121.384 0h1.44l.528-.001h6.329v-8.275h-8.297v8.276Zm528.875 0h2.497l.526-.001h5.275v-8.275h-8.298v8.276Zm-858.341-.001h8.813v-8.745h8.185v-8.208H8.47v16.953Zm191.027-.003h8.276v-8.299h-8.276v8.299Zm598.237 0h8.276v-8.299h-8.276v8.299Zm-269.234-.157.427.006.563.01.564.011.56.01.565.009 1.127.02.564.011.564.01.56.009 1.127.02.565.011.563.009.561.01.426.008v-8.32h-8.736v8.166Zm836.929.145h8.3v-8.275h-8.3v8.275Zm-320.81-.004h8.15v-8.063h-8.15v8.063Zm-220.845-.014h8.013v-8.255h-8.013v8.255Zm-242.836-.103h16.802v-8.286l-.531-.027a78.554 78.554 0 0 1-.53-.026l-.526-.026-.524-.027-.523-.025-.524-.026-.522-.027-.528-.026-.528-.025-.534-.027-.537-.027-.545-.027-.553-.028-.561-.027-.569-.029-.582-.029v-8.201h-8.185v16.916Zm-295.203-.032.409.001.548.001h.546l.549.001.552.001h1.1l.552.001h4.478v-8.401h-8.734v8.396Zm494.402-.091h8.251v-8.278h-8.251v8.278Zm-372.585-.029h8.301v-8.276h-8.301v8.276Zm-320.804-.004h8.148v-8.064H86.75v8.064Zm1096.351-8.105h8.3v-8.275h-8.3v8.275Zm494.19 0h8.3v-8.275h-8.3v8.275Zm51.85-.166.42.008.56.012.57.01 1.69.032.56.01.57.01.56.01.56.011 1.13.019.56.011 1.13.02.43.007v-8.32h-8.74v8.16Zm-476.66.135h8.28v-16.9h-8.28v16.9Zm121.38 0h8.28v-16.9h-8.28v16.9Zm425.01-.123h8.08v-8.085h-8.08v8.085Zm95.34-.055h8.15v-8.06h-8.15v8.06Zm-381.44-.042h8.06v-8.146h-8.06v8.146Zm190.74 0h8.06v-8.146h-8.06v8.146Zm-1478.286-.021h1.443l.527-.001h6.33v-8.276h-8.3v8.277Zm494.196 0h6.714l.528-.001h1.057v-8.276h-8.299v8.277Zm51.843-.166.423.008.564.01.563.011.565.01 1.127.021.563.01a106.093 106.093 0 0 0 1.127.021l.564.01.563.01.563.01.563.011 1.127.019.426.008v-8.32h-8.738v8.161Zm672.197.156h8.27v-8.251h-8.27v8.251Zm-1148.853-.021h8.28v-16.902h-8.28v16.902Zm121.38 0h8.281v-16.902h-8.281v16.902Zm1044.403-.021h8.53v-8.024h-2.24l-.55-.001h-1.09l-.54-.001h-.53l-.53-.001-1.07-.002-.52-.002-.53-.002-.53-.001-.4-.002v8.036Zm-619.396-.103h8.085v-8.085h-8.085v8.085Zm95.341-.055h8.146v-8.061h-8.146v8.061Zm-381.44-.042h8.059v-8.147h-8.059v8.147Zm190.741 0h8.06v-8.147h-8.06v8.147Zm-260.053-.03h8.277v-8.252h-8.277v8.252Zm16.93-.043h8.53v-8.025h-2.788l-.546-.001h-.54l-.54-.001c-.179 0-.358.001-.534 0l-.533-.001-1.063-.002-.527-.002-.526-.001-.528-.002-.405-.002v8.037Zm949.357-8.071.41.009.54.011 1.08.021.54.011 1.08.022.54.011 1.62.032.54.011.54.011.54.012.55.009.42.009v-8.424h-8.4v8.255Zm-957.873-.273.405.009 1.62.032.543.011.54.01.54.011.543.012 1.62.032.543.011.54.011.539.011.543.011.421.009v-8.425h-8.397v8.255Zm1270.163.092h8.14v-8.084h-8.14v8.084Zm-494.19-.039h16.79v-8.207h-16.79v8.207Zm-463.68-.234h8.134v-8.085h-8.134v8.085Zm-494.189-.04h16.786v-8.206h-16.786v8.206Zm853.919-8.488h8.26v-7.915h-8.26v7.915Zm147.41-.015h8.08v-8.084h-8.08v8.084Zm173.24-.006h8.24v-7.987h-8.24v7.987Zm-1278.523-.253h8.256v-7.915h-8.256v7.915Zm147.406-.013h8.086v-8.085h-8.086v8.085Zm173.24-.007h8.241v-7.987h-8.241v7.987Zm619.827-8.313h8.24v-7.986h-8.24v7.986Zm-43.44-.085h8.24v-7.986h-8.24v7.986Zm-914.437-.188h8.241v-7.986h-8.241v7.986Zm-43.433-.084h8.241v-7.987h-8.241v7.987Z"/></svg>