<svg xmlns="http://www.w3.org/2000/svg" width="1920" height="425" fill="none"><path fill="#EDC326" d="M910.853 424.716h-8.261v-7.919h8.261v7.919Zm957.257 0h-8.26v-7.919h8.26v7.919ZM520.197 416.21h-8.131l-.026-.529c-.009-.176-.021-.35-.03-.525l-.027-.522-.027-.521-.026-.52-.028-.521-.026-.521-.027-.525-.027-.528-.027-.531-.026-.537c-.009-.18-.019-.361-.031-.543l-.027-.551-.029-.559a38.702 38.702 0 0 0-.031-.567c-.009-.191-.017-.384-.029-.578h-8.354v-8.466h16.929v17.044Zm957.253 0h-8.13c0-.177-.01-.354-.02-.529l-.03-.525-.03-.522-.03-.521c-.01-.173-.01-.347-.02-.52l-.03-.521-.03-.521c-.01-.174-.01-.35-.02-.525l-.03-.528-.03-.531a9.563 9.563 0 0 1-.02-.537 893.53 893.53 0 0 1-.15-2.798h-8.35v-8.466h16.92v17.044Zm-1339.017-.014h-8.029v-8.532l.369-.001.523-.001h.522l.523-.001h.519l.52-.001h1.032l.514-.001h3.507v8.537Zm957.257 0h-8.03v-8.532l.37-.001.52-.001h.53l.52-.001h.52l.52-.001h1.03l.51-.001h3.51v8.537ZM1919.9 0v373.139h-8.24v8.488h8.34v8.546h-8.5v8.824h-8.45v8.481h-8.57v-16.991h8.09v-8.681h-16.95v8.667h-8.68v16.941h-8.81V390.48h-8.48v-8.558h-8.41v-8.709h8v-8.599h-16.87v16.875l-.58.028c-.2.012-.39.02-.58.029-.18.009-.37.018-.56.03l-.55.027-.54.027-.54.026c-.18.012-.36.022-.54.031l-.53.026-.53.027-.53.027-.53.027-.54.026-.53.028-.54.027-.54.026-.55.027v8.253h-8.92v8.816h-8.47v-17.225h-17.35v-8.535h-17.24a710.66 710.66 0 0 0-.06-1.143l-.03-.558c0-.185-.01-.368-.02-.55l-.03-.543a9.634 9.634 0 0 1-.02-.537l-.03-.531c-.01-.176-.02-.352-.02-.528l-.03-.526a9.105 9.105 0 0 1-.02-.522l-.03-.523c-.01-.176-.02-.349-.02-.525l-.03-.522a9.28 9.28 0 0 1-.02-.528l-.03-.531-.03-.534h-8.25v16.755h-8.7c0-.164-.01-.329-.02-.49l-.05-.984-.03-.493-.03-.495c-.01-.164-.01-.331-.02-.495l-.03-.502-.03-.501c0-.167-.01-.335-.02-.505l-.03-.507-.03-.511c0-.17-.01-.343-.02-.513l-.03-.52-.03-.521-.03-.529c-.01-.176-.01-.355-.02-.531h-8.26v8.52h-8.81v8.276h-17.2l-.03-.494a8.09 8.09 0 0 1-.02-.492l-.03-.497-.03-.492c-.01-.167-.02-.331-.02-.498l-.03-.496-.03-.501a8.422 8.422 0 0 1-.02-.502 476.676 476.676 0 0 1-.06-1.012l-.03-.509c-.01-.173-.01-.344-.02-.517l-.03-.517-.03-.525a273.89 273.89 0 0 1-.06-1.059h-8.21v8.092h-9.01v-16.935h-4.81c-.18 0-.37 0-.55.003h-3.16v8.404h-17.26v8.784h-8.76V364.73h-8.65v16.727h-17.32v-8.501h-17.24c0 .133-.01.268-.02.4l-.03.526-.03.522-.05 1.057-.03.531-.03.531-.03.538-.03.54c-.02.182-.03.364-.04.545l-.03.55a625.702 625.702 0 0 0-.06 1.113l-.03.564-.03.573c-.02.191-.03.383-.04.576l-.51.027-.51.024c-.17.009-.34.018-.51.024l-.51.027c-.17.006-.34.015-.51.023l-.51.025c-.17.009-.34.017-.51.023l-.51.028c-.17.006-.34.014-.52.023l-.52.026c-.17.006-.35.016-.52.025l-.53.026-.54.025-.55.027-.55.026-.56.027v8.41h8.27v8.809h-8.27v8.454h-8.52l-.03.575-.03.564c-.01.187-.02.373-.02.557l-.03.548-.03.542c-.01.179-.02.358-.02.535a835.764 835.764 0 0 1-.06 1.058c-.01.176-.01.35-.02.525l-.03.522a9.14 9.14 0 0 0-.02.523l-.03.522-.03.524c0 .174-.01.349-.02.525l-.03.528c-.01.177-.02.355-.02.534h-8.22v-8.241h-9.03v-8.781h-8.43v-26.022h-8.76v16.946h-17.39v-25.482h-8.54v16.83h-8.71v-16.681h-8.7v16.708h-8.52v-8.067h-8.73c-.01.164-.01.325-.02.489l-.03.492a8.09 8.09 0 0 0-.02.492l-.03.496-.03.495c0 .168-.01.332-.02.499l-.03.504-.03.504c0 .17-.01.341-.02.511l-.03.514c-.01.172-.01.345-.02.518l-.03.526a273.89 273.89 0 0 0-.06 1.062c-.01.179-.01.362-.03.544-.01.182-.01.364-.02.546h-8.27v26.094h-8.79v-25.846h-25.95v-8.411h-8.74v16.716h-8.87v-8.332h-25.86v8.269h-8.81v-8.269h-8.43v8.466h-17.61v8.726h-1.51l-.55.001h-1.1l-.55.001h-1.65l-1.1.001h-1.1l-.54.001h-.42v-8.288h-17.25v7.989h-8.72v-16.697h-8.72v16.73h-8.71v-16.772h-8.54v8.516h-43.5v1.478c.01.18.01.361.01.541v1.081c.01.18.01.36.01.54v.541c0 .18 0 .36.01.54v1.081l.01 2.164v.413h-.4l-.55.001-.54.001h-.56l-.55.001h-1.11l-.55.001h-4.59v-8.383h-17.07c-.01-.187-.02-.373-.02-.557l-.03-.549-.03-.542c0-.182-.01-.362-.02-.541l-.03-.531c0-.179-.01-.356-.02-.531a9.35 9.35 0 0 1-.02-.529l-.03-.525c-.01-.173-.01-.349-.02-.525l-.03-.525c-.01-.176-.01-.352-.02-.528l-.03-.529c-.01-.179-.01-.355-.02-.534l-.03-.538c-.01-.182-.01-.361-.02-.543l-.03-.549h-8.28v-17.209h-8.72v8.13h-8.77v8.837h8.27v8.811h-8.28v8.528h-17.33c-.01-.318-.01-.637-.01-.955-.01-.364-.01-.729-.01-1.093s-.01-.728-.01-1.092c0-.364-.01-.728-.01-1.092 0-.364-.01-.729-.01-1.092l-.02-2.185c0-.364-.01-.728-.01-1.092 0-.364 0-.728-.01-1.092 0-.364-.01-.728-.01-1.092 0-.364 0-.728-.01-1.092 0-.364 0-.729-.01-1.093 0-.364 0-.728-.01-1.093l-.01-2.184c-.01-.319-.01-.638-.01-.957h-8.54v8.278h-8.81v-8.278h-8.68v-8.667h-8.51v17.016h-8.54v-8.298h-26.24V364.28h-8.43v17.186h-17.44v8.649h-8.71v-8.169h-8.91v-8.81h-8.46v8.553h-26.42v17.486l-.93-.001-1.08-.001-1.08-.001-1.08-.001h-1.09l-1.08-.002-1.08-.001-1.08-.001-1.08-.001-1.08-.001-1.08-.002-1.09-.001-1.08-.002-1.08-.001-1.08-.002-.95-.001c0 .136 0 .272-.01.407l-.03 2.2c-.01.182-.01.365-.01.549l-.02 1.099c0 .183-.01.367-.01.55l-.06 3.299v.412h-8.67v-8.518l-.96-.008-1.09-.009-1.09-.01-1.09-.01-1.09-.01-1.09-.009-1.1-.009-1.09-.01-1.09-.01-1.1-.009-1.08-.01-1.1-.01-1.09-.01-2.18-.018-.96-.009v-8.463h-8.48v-8.681h8.04v-8.685h-8.09c0-.194-.01-.388-.02-.575l-.03-.571-.03-.558-.03-.549c0-.182-.01-.361-.02-.543l-.03-.534-.03-.532c-.01-.175-.01-.352-.02-.528l-.03-.522c-.01-.176-.02-.35-.02-.523l-.03-.519c-.01-.176-.02-.35-.02-.523l-.03-.518-.03-.523-.03-.525c0-.176-.01-.352-.02-.528h-8.29v17.047h-8.78v-8.455h-8.51l-.03-.576-.03-.567-.03-.558c-.02-.185-.02-.368-.03-.55-.02-.182-.02-.364-.03-.543l-.03-.534-.03-.534-.03-.525-.03-.526-.03-.522-.03-.522c-.01-.173-.01-.346-.02-.519l-.03-.523-.03-.525-.03-.525-.03-.532h-8.236v8.304h-8.647c-.009.194-.021.384-.03.575-.012.191-.021.38-.033.568-.009.188-.018.373-.03.558-.009.185-.021.367-.03.549-.009.182-.017.361-.029.543l-.028.534c-.012.179-.02.355-.029.531l-.03.529-.027.525c-.008.173-.021.347-.03.52l-.026.522c-.009.173-.021.347-.03.523l-.027.518c-.012.176-.021.349-.03.525l-.026.529c-.012.176-.022.352-.031.528h-8.24v-8.44h-12.192v.084h-8.237v3.456l.001.528v4.504h8.34v8.546h-8.5v8.824h-8.454v8.481h-8.563v-16.991h8.087v-8.681h-16.95v8.667h-8.675v16.941h-8.81V390.48h-8.488v-8.558h-8.412v-8.709h8.008v-8.599h-16.879v16.875l-.58.028c-.191.012-.381.02-.569.029a33.91 33.91 0 0 0-.561.03l-.552.027c-.183.008-.365.018-.546.027l-.541.026c-.179.012-.358.022-.535.031l-.534.026-.531.027-.529.027-.53.027-.533.026-.534.028-.539.027-.544.026-.55.027v8.253h-8.913v8.816h-8.476v-17.225h-17.348v-8.535h-17.243l-.028-.576-.027-.567-.027-.558-.026-.55-.026-.543-.025-.537-.026-.531-.025-.528-.025-.526-.026-.522-.024-.523-.026-.525-.024-.522-.025-.528-.026-.531-.025-.534h-8.254v16.755h-8.697l-.026-.49-.052-.984-.026-.493-.053-.99-.026-.502-.026-.501-.028-.505-.026-.507-.026-.511-.029-.513-.027-.52-.027-.521-.029-.529-.027-.531h-8.255v8.52h-8.809v8.276h-17.204c-.008-.165-.018-.33-.027-.494l-.025-.492-.027-.497-.027-.492-.026-.498-.027-.496-.027-.501-.027-.501a532.254 532.254 0 0 1-.054-1.013l-.028-.509-.027-.517-.028-.517-.029-.525-.028-.528-.028-.531h-8.215v8.092h-9.012v-16.935h-4.805c-.183 0-.366 0-.549.003h-3.158v8.404h-17.263v8.784h-8.758V364.73h-8.656v16.727h-17.318v-8.501h-17.235l-.021.4-.03.526-.029.522-.059 1.057-.03.531-.029.531-.03.538-.032.54-.03.545-.031.55-.032.552-.032.561-.032.564-.032.573-.033.576-.513.027c-.17.009-.341.015-.511.024-.169.009-.339.018-.509.024l-.508.027c-.17.006-.339.015-.508.023l-.509.025c-.17.009-.34.017-.511.023l-.513.028c-.172.006-.344.014-.516.023l-.521.026c-.174.006-.349.016-.525.025l-.531.026-.538.025-.545.027-.554.026-.562.027v8.41h8.271v8.809h-8.271v8.454h-8.519l-.027.575-.029.564-.027.557-.027.548-.028.542-.026.535-.026.531-.026.527-.026.525-.026.522-.026.523-.025.522-.027.524-.025.525a943.558 943.558 0 0 0-.053 1.062h-8.22v-8.241h-9.023v-8.781h-8.436v-26.022h-8.752v16.946h-17.398v-25.482h-8.539v16.83h-8.703v-16.681h-8.7v16.708h-8.527v-8.067h-8.724l-.027.489c-.009.164-.018.328-.024.492l-.026.492-.028.496c-.006.164-.014.328-.023.495l-.028.499-.026.504-.027.504c-.006.17-.015.341-.024.511l-.027.514-.026.518c-.009.173-.022.35-.031.526l-.026.528-.027.534c-.009.179-.018.362-.03.544l-.027.546h-8.265v26.094h-8.792v-25.846h-25.954v-8.411h-8.736v16.716h-8.867v-1.36c-.003-.17-.003-.337-.003-.507v-6.465H477.23v8.269h-8.81v-8.269h-8.426v8.466h-17.615v8.726h-1.511l-.549.001h-1.098l-.549.001h-1.648l-1.098.001h-1.098l-.55.001h-.412v-8.288h-17.254v7.989h-8.723v-16.697h-8.712v16.73h-8.712v-16.772h-8.539v8.516H338.42l.002.398.006 1.08c.003.18.003.361.003.541.003.18.003.36.003.54.003.18.003.361.003.541.003.18.002.36.002.54.003.18.003.361.006.541 0 .18 0 .36.003.54 0 .18.001.361.004.541v.54l.012 2.164.002.413h-.403l-.545.001-.549.001h-.553l-.549.001h-1.11l-.556.001h-4.593v-8.383h-17.066c-.009-.187-.014-.373-.023-.557l-.028-.549a33.682 33.682 0 0 1-.023-.542l-.028-.541-.046-1.062c-.009-.176-.019-.353-.025-.529a29.424 29.424 0 0 1-.023-.525l-.028-.525a30.714 30.714 0 0 0-.023-.525l-.024-.528c-.009-.176-.015-.353-.024-.529-.009-.179-.018-.355-.024-.534l-.027-.538-.024-.543-.026-.549h-8.286v-17.209h-8.718v8.13h-8.772v8.837h8.274v8.811h-8.28v8.528h-17.336l-.007-.955-.009-1.093-.009-1.092-.012-1.092-.01-1.092-.017-2.185-.009-1.092-.009-1.092-.011-1.092-.01-1.092-.018-2.186-.017-2.184c-.006-.319-.009-.638-.012-.957h-8.539v8.278h-8.811v-8.278h-8.676v-8.667h-8.506v17.016h-8.539v-8.298h-26.245V364.28h-8.433v3.027c.003.352.003.701.003 1.053v6.414c.003.364.003.728.003 1.092v5.6h-17.443v8.649h-8.709v-8.169h-8.906v-8.81h-8.464v8.553H121.19v17.486l-.928-.001-1.08-.001-1.084-.001-1.08-.001h-1.08l-1.084-.002-2.161-.002-1.084-.001-1.08-.001-1.081-.002-1.08-.001-1.083-.002-1.081-.001-1.08-.002-.951-.001-.007.407-.036 2.2-.009.549-.017 1.099a33.64 33.64 0 0 1-.013.55l-.054 3.299-.007.412h-8.666v-8.518l-.958-.008-1.093-.009-1.091-.01-1.093-.01-1.089-.01-1.093-.009-1.091-.009-2.186-.02-1.092-.009-1.09-.01-1.091-.01-1.093-.01-2.185-.018-.955-.009v-8.463h-8.482v-8.681h8.044v-8.685h-8.09l-.026-.575a37.112 37.112 0 0 1-.03-.571l-.026-.558-.028-.549-.026-.543-.027-.534-.027-.532-.027-.528-.026-.522c-.006-.176-.016-.35-.025-.523l-.026-.519c-.01-.176-.019-.35-.025-.523l-.026-.518-.027-.523-.027-.525a31.073 31.073 0 0 0-.024-.528h-8.294v17.047h-8.781v-8.455h-8.506c-.012-.194-.02-.388-.032-.576-.01-.191-.022-.379-.03-.567a36.736 36.736 0 0 1-.03-.558c-.013-.185-.021-.368-.03-.55a33.67 33.67 0 0 1-.03-.543c-.012-.179-.02-.358-.03-.534a31.838 31.838 0 0 0-.03-.534l-.026-.525c-.01-.176-.022-.353-.03-.526-.01-.173-.018-.349-.027-.522a29.695 29.695 0 0 1-.03-.522l-.028-.519-.029-.523-.026-.525a29.103 29.103 0 0 1-.03-.525 34.027 34.027 0 0 0-.03-.532h-8.238v8.304h-8.647l-.029.575c-.012.191-.021.38-.033.568-.01.188-.018.373-.03.558-.009.185-.02.367-.03.549-.009.182-.018.361-.03.543l-.026.534a34.61 34.61 0 0 0-.03.531l-.03.529-.027.525-.03.52-.027.522-.03.523-.027.518c-.011.176-.02.35-.029.525l-.027.529c-.012.176-.022.352-.03.528h-8.24v-8.44H0V0h1919.9ZM615.71 416.129h-8.067v-8.153h8.067v8.153Zm957.26 0h-8.07v-8.153h8.07v8.153Zm-1026.455-.011h-16.938v-8.303h16.938v8.303Zm216.892-7.913-.001.527v7.386h-8.281v-8.303h8.282v.39Zm740.363 7.913h-16.94v-8.303h16.94v8.303Zm216.89 0h-8.28v-8.303h8.28v8.303Zm-1608.19-.027h-8.304v-8.28h8.304v8.28Zm720.08 0h-8.305v-8.28h8.305v8.28Zm237.18 0h-8.31v-8.28h8.31v8.28Zm720.08 0h-8.31v-8.28h8.31v8.28Zm-1243.158-8.276h-.137v-.136h.137v.136Zm216.892-.001-.137.001v-.136h.137v.135Zm740.366.001h-.14v-.136h.14v.136Zm216.89-.001-.01-.008-.01-.008.01.005c0 .002 0 .005.01.007v.005h-.14v-.136l.07.068c.01.004.01.009.02.013 0 .004 0 .008.01.012 0 .004.01.008.01.011l-.06-.062-.01-.009-.01-.008-.02-.025h.13v.135Zm-957.278-.02.016.016.005.003-.03-.03.009.011Zm-659.365-.113-.005.004a.033.033 0 0 1 .008-.006c0-.002.003-.004.003-.004l.003-.001v.137h-.138v-.001l.002-.138h.136l-.009.009Zm720.088.13h-.137v-.137h.137v.137Zm237.165-.126c0-.002 0-.005.01-.006v-.005.137h-.13v-.139h.13l-.01.013Zm720.09.126h-.13v-.137h.13v.137Zm-1677.463-.01-.007.008.005-.004.006-.007.004-.004-.008.007Zm957.253.008v-.008.008Zm442.6-.015v-.004l-.01-.004c0 .003.01.005.01.008Zm-1399.793-.054-.035.035-.006.008-.004.004a.03.03 0 0 1 .01-.009.07.07 0 0 1 .008-.01l.016-.013a.068.068 0 0 1 .012-.013l.008-.01-.009.008Zm957.253 0-.01.018-.01.009-.01.008-.01.012c0-.002 0-.006.01-.009 0-.003.01-.007.01-.01 0-.005.01-.009.01-.013.01-.004.01-.008.01-.013l.01-.01-.01.008Zm-297.849.032-.008-.008-.017-.018-.009-.008.034.034Zm-216.905-.012a.027.027 0 0 1 .008.007l-.011-.011-.01-.009c.006.004.01.009.013.013Zm957.254 0c.01.002.01.004.01.007l-.01-.011-.01-.009c.01.004.01.009.01.013Zm-740.392-.031-.008-.008-.009-.009-.008-.008.025.025Zm-659.311-.04-.026.026-.005.007.017-.017a.05.05 0 0 1 .013-.011c.002-.002.005-.005.005-.007l-.004.002Zm957.263 0-.03.026-.01.007c0-.002.01-.003.01-.005 0-.004.01-.008.01-.012 0-.003.01-.007.01-.011.01-.002.01-.005.01-.007v.002Zm442.37.002c.01.003.01.006.01.009.01.003.01.006.01.01.01.004.01.008.02.012l-.02-.018-.01-.009-.01-.006v.002Zm-679.574.021.005-.004.002-.003-.007.007Zm-277.68-.021.01.009.012.01-.015-.015-.007-.006v.002Zm225.273-.012h-8.255v-8.286h8.255v8.286Zm957.261 0h-8.26v-8.286h8.26v8.286Zm-904.952-.005h-8.516v-8.508h8.516v8.508Zm957.262 0h-8.52v-8.508h8.52v8.508Zm-1650.966-.01h-.152c.001 0 .003-.002.003-.004a.024.024 0 0 0 .009-.006l.008-.008c.003-.003.006-.007.012-.01.003-.004.006-.008.012-.012l.03-.024c.003-.005.009-.009.012-.013a.067.067 0 0 1-.015.013l-.012.011a.065.065 0 0 0-.015.012.045.045 0 0 0-.012.012.032.032 0 0 0-.012.011.057.057 0 0 1-.008.007.027.027 0 0 1-.01.006c0 .002-.003.004-.003.004l-.002-.128h.148l-.005.003c0 .002-.003.005-.006.007a.065.065 0 0 0-.009.008l-.013.009a.035.035 0 0 1-.01.011l.014-.011c.003-.003.006-.007.012-.01l.009-.009.008-.007.003-.005.004-.001v.134Zm957.256 0h-.15v-.004c0-.001.01-.003.01-.006 0-.002.01-.005.01-.008s.01-.007.01-.01c0-.004.01-.008.01-.012l.03-.024c.01-.005.01-.009.02-.013-.01.004-.01.008-.02.013 0 .004-.01.007-.01.011-.01.004-.01.008-.02.012 0 .004-.01.008-.01.012 0 .003-.01.008-.01.011 0 .002-.01.005-.01.007 0 .003-.01.005-.01.006v.004-.128h.14v.003c0 .002 0 .005-.01.007 0 .002 0 .005-.01.008 0 .003 0 .006-.01.009 0 .004-.01.008-.01.011.01-.003.01-.007.01-.011.01-.003.01-.007.02-.01 0-.004 0-.006.01-.009 0-.003 0-.005.01-.007v-.006.134Zm-957.567-8.122c.003.18.007.361.012.541l.009.541.012.541.009.542.007.271.009.541.008.27.009.542c.003.18.006.361.012.541l.008.541c.003.18.006.362.012.542l.01.541c.003.181.006.362.012.542l.017 1.084.01.413h-.397l-.543.001-.547.001h-.546l-.552.001h-1.104l-.562.001h-4.659v-5.873c0-.168.003-.335.003-.502v-1.495l.003-.369.415-.008.567-.011.565-.01.563-.011.565-.011.563-.011.564-.009.565-.011.56-.01.565-.01.564-.01.564-.01 1.129-.02.56-.011.431-.007.008.402Zm957.257 0c0 .18.01.361.01.541.01.18.01.361.01.541 0 .18.01.361.01.541.01.18.01.362.01.542.01.09.01.18.01.271l.01.541c0 .09 0 .18.01.27v.542c.01.18.01.361.02.541 0 .18 0 .361.01.541 0 .18 0 .362.01.542 0 .181 0 .361.01.541 0 .181 0 .362.01.542 0 .181 0 .362.01.542 0 .181 0 .362.01.542 0 .138 0 .276.01.413h-.4l-.54.001-.55.001h-.55l-.55.001h-1.1l-.56.001h-4.66V399.3l.42-.008.56-.011 1.13-.021.57-.011.56-.011.57-.009.56-.011.56-.01.56-.01.57-.01.56-.01.57-.01.56-.01.56-.011.43-.007c.01.134.01.268.01.402Zm-870.805 7.995h-8.067v-8.151h8.067v8.151Zm957.255 0h-8.06v-8.151h8.06v8.151Zm-384.668-.006h-8.09v-8.138h8.09v8.138Zm957.258 0h-8.09v-8.138h8.09v8.138Zm-1399.74-.01h-8.031v-8.533h.37l.522-.001.525-.001.52-.001h1.039l.519-.001h1.027l.509-.001h3v8.538Zm957.26 0h-8.03v-8.533h.37l.52-.001.52-.001.52-.001h1.04l.52-.001h1.03l.51-.001h3v8.538Zm-705.522-.076h-8.089v-8.137h8.089v8.137Zm957.252 0h-8.08v-8.137h8.08v8.137Zm-818.294-.001h-8.255v-8.285h8.255v8.285Zm957.254 0h-8.25v-8.285h8.25v8.285Zm-1616.574-.003h-8.278v-8.303h8.278v8.303Zm190.867 0h-8.28v-8.303h8.28v8.303Zm164.836 0h-8.279v-8.303h8.279v8.303Zm601.551 0H1027v-8.303h8.28v8.303Zm190.87 0h-8.28v-8.303h8.28v8.303Zm164.84 0h-8.28v-8.303h8.28v8.303Zm-810.033-.019h-8.282v-8.256h8.282v8.256Zm957.253 0h-8.28v-8.256h8.28v8.256Zm-1087.391-.006h-8.302v-8.281h8.302v8.281Zm425.109 0h-8.305v-8.281h8.305v8.281Zm532.152 0h-8.31v-8.281h8.31v8.281Zm425.1 0h-8.3v-8.281h8.3v8.281Zm-1529.836-.007h-8.152v-8.065h8.152v8.065Zm957.256 0h-8.15v-8.065h8.15v8.065Zm-1069.907-.037h-8.247v-7.991h8.247v7.991Zm957.257 0h-8.25v-7.991h8.25v7.991ZM121.345 399.3l-.146.003a.047.047 0 0 0-.006.005l-.003.001v-.134l.152-.001h.004l-.001.126Zm957.255 0-.14.003-.01.006v-.134l.15-.001c0-.001 0 0 0 0v.126Zm-575.332-.134h-.137l-.002-.137h.139v.137Zm69.404-.137-.003.004-.009.007c0 .002-.003.006-.009.009l-.008.01.014-.013.009-.008.009-.009v.137h-.137l.018-.018.006-.007.008-.009.019-.018.009-.008.017-.017.006-.009-.003.003-.012.013c-.006.004-.008.009-.014.013a.051.051 0 0 1-.013.012.045.045 0 0 1-.012.012l-.008.011-.009.007c-.003.003-.006.006-.006.008l-.006.004v-.136h.137l-.003.002Zm242.92.137h-.137l.018-.018.008-.007.008-.009.018-.018.009-.008.007-.008.069-.069v.137Zm644.938 0h-.14v-.137h.14v.137Zm69.4-.137v.004c-.01.002-.01.004-.01.007 0 .002-.01.006-.01.009 0 .003-.01.007-.01.011l-.01.011.02-.025.01-.008.01-.009v.137h-.14l.02-.018.01-.007.01-.009.02-.018v-.008l.01-.008.01-.009.01-.009-.02.016c0 .004-.01.009-.01.013l-.02.024c-.01.003-.01.007-.01.011-.01.002-.01.005-.01.007-.01.003-.01.006-.01.008s0 .003-.01.004v-.136h.14v.002Zm242.92.137h-.14l.01-.009.01-.009.01-.007.01-.009.01-.018.01-.008.01-.008.02-.018.01-.009.01-.008v-.008l.01-.009.02-.017v.137Zm-957.264-.133-.006.007-.01.009a.106.106 0 0 0-.009.011l-.038.036-.012.013-.034.035-.009.007-.006.008-.005.004-.002.001v-.137h.137l-.006.006Zm957.194.063c0 .004-.01.009-.01.013-.01.005-.01.008-.01.012-.01.004-.01.008-.02.012 0 .003 0 .007-.01.011v.007c-.01.003-.01.006-.01.008s0 .003-.01.004v.001-.137h.14l-.07.069Zm-1035.297.063h-.137v-.137h.137v.137Zm957.257 0h-.14v-.137h.14v.137Zm-1191.589-.014-.003.004.009-.008-.006.004Zm957.259 0v.004l.01-.008c-.01.001-.01.002-.01.004Zm-1330.327-.143h.136v.137l-.002-.001-.132.002a6.268 6.268 0 0 0-.004-.139l.002.001Zm957.257 0h.14v.137l-.01-.001-.13.002v-.139.001Zm-1009.314-.001.003.001.135.001v.136-.001h-.138v-.137Zm355.705.001h.135v.137l-.001-.001h-.136v-.137l.002.001Zm957.259 0h.13v.137-.001h-.13v-.137.001Zm-1121.961.134v.002h-.136v-.137h.135l.001.135Zm766.261-.133v.005-.006l.13.001v.135h-.14v-.137l.01.002Zm191 .133v.002h-.14v-.137h.14v.135Zm-783.773-.001h-.138l.003-.001.002-.004.003-.002-.002.001-.006.006v-.137l.137-.001.001.138Zm425.106 0h-.137l.002-.001.004-.005-.006.006v-.138h.137v.138Zm86.739-.12-.008.008-.051.052-.009.008-.008.009-.009.009-.008.007-.009.009-.017.018v-.138h.137l-.018.018Zm445.408-.017v.137h-.13v-.007.007-.137l.13-.001v.001Zm425.11.137h-.14l.01-.001h-.01v-.137h.14v.138Zm86.75-.129-.06.06-.01.009-.01.008-.02.018v.007l-.01.009-.02.018v-.138h.14l-.01.009Zm-1833.472.126.002.002-.002-.004-.006-.005c.003.003.006.005.006.007Zm957.262 0v.002-.004l-.01-.005c0 .003.01.005.01.007Zm-601.566-.008-.002-.003-.006-.005a.03.03 0 0 0 .008.008Zm957.246-.008c.01.003.01.006.01.008v-.003l-.01-.008v-.001.004Zm-1260.903 0 .008.007-.001-.001-.008-.007.001.001Zm737.315-.008-.004.005.013-.012-.009.007Zm-598.515-.003.003.003-.003-.004-.006-.005.006.006Zm957.253 0c.01.001.01.003.01.003l-.01-.004v-.005.006Zm-783.82-.022-.009.009-.007.009-.008.006.006-.004a.044.044 0 0 1 .012-.011c.003-.004.006-.009.012-.013l.002-.004-.008.008Zm957.23.024.01-.006v-.003l-.01.009Zm-896.449-.022a.068.068 0 0 1-.012.013l.009-.009.01-.009.006-.005a.064.064 0 0 1-.013.01Zm896.479-.002-.01.009-.01.006c.01-.002.01-.004.01-.006 0-.004.01-.009.01-.013l.01-.004-.01.008Zm60.78.002c0 .004-.01.008-.01.013l.01-.018v.005Zm-592.933-.002-.008.009.017-.017-.009.008Zm957.253 0v.009l.01-.017-.01.008Zm-1555.817-.001.006.005-.009-.009.003.004Zm957.257 0 .01.005-.01-.009-.01-.002c.01.002.01.004.01.006Zm-722.995-.021-.007.01.007-.008.004-.005a.014.014 0 0 1-.004.003Zm957.255 0c0 .003 0 .007-.01.01l.01-.008.01-.005c0 .001-.01.001-.01.003Zm-1382.407-.004.006.005-.013-.013a.03.03 0 0 1 .007.008Zm957.257 0 .01.005-.01-.009-.01-.004c.01.002.01.005.01.008Zm-601.556-.002-.001-.002-.004-.003a.012.012 0 0 1 .005.005Zm-164.871-.033.024.022-.018-.017-.009-.008-.007-.006.01.009Zm957.277.022-.01-.017-.01-.005.02.022Zm-358.609-.004.008-.008.002-.003-.01.011Zm-425.083-.025-.009.008-.009.008-.001.003.004-.005.012-.009.016-.016.001-.002-.014.013Zm957.252.008-.01.008v.003-.005c0-.003.01-.007.01-.01.01-.003.01-.006.01-.008 0-.003 0-.005.01-.007v-.002l-.02.021Zm-906.077-8.737h1.056l1.053.001h2.099l1.045.001 1.044.001h1.042l1.042.001.915.001c.002.139.005.278.01.417l.008.564.012.565.01.564c.006.188.009.376.012.564l.008.564c.006.188.009.376.012.564l.009.564c.003.188.01.376.012.564l.018 1.128c.006.187.009.376.012.563l.009.564c.003.188.006.375.012.563l.009.564.007.426h-16.986v-8.744h6.467l1.063.001Zm957.257 0h1.06l1.05.001h2.1l2.09.002h1.04l1.04.001.92.001c0 .139 0 .278.01.417 0 .188 0 .377.01.564 0 .188 0 .377.01.565 0 .188 0 .376.01.564 0 .188 0 .376.01.564 0 .188 0 .376.01.564 0 .188.01.376.01.564 0 .188 0 .377.01.564 0 .188.01.376.01.564l.02 1.128c0 .187.01.376.01.563 0 .188.01.376.01.564 0 .188 0 .375.01.563 0 .188.01.376.01.564 0 .142 0 .284.01.426h-16.99v-8.744h6.47l1.06.001Zm-878.392 8.741h-8.307v-8.28h8.307v8.28Zm242.917 0h-8.304v-8.28h8.304v8.28Zm714.335 0h-8.3v-8.28h8.3v8.28Zm242.92 0h-8.3v-8.28h8.3v8.28Zm-1130.658-.003h8.297v-25.65h-8.297v25.65Zm957.258 0h8.3v-25.65h-8.3v25.65Zm-853.545-.002h-8.282v-8.301h8.282v8.301Zm957.255 0h-8.28v-8.301h8.28v8.301Zm-1043.338-.005h8.277v-8.546h-8.277v8.546Zm957.258 0h8.28v-8.546h-8.28v8.546Zm-1521.441-.003h8.544c0-.136-.001-.273-.003-.409v-1.1c0-.183-.003-.367-.003-.551v-1.1c-.003-.184-.003-.368-.003-.551v-.551l-.003-.55v-1.1c-.003-.184-.003-.368-.003-.551V392l-.003-.55v-.965h-8.526v8.529Zm957.261 0h8.54v-1.509c0-.183-.01-.367-.01-.551V392c0-.183-.01-.367-.01-.55v-.965h-8.52v8.529Zm-914.283-.012h-8.258v-8.283h8.258v8.283Zm957.253 0h-8.25v-8.283h8.25v8.283Zm-939.939-.008h-8.017v-8.26h8.017v8.26Zm957.259 0h-8.02v-8.26h8.02v8.26Zm-774.431-.006-.152.001v-.001s.003-.002.003-.004a.04.04 0 0 0 .009-.005.065.065 0 0 1 .008-.009c.003-.003.006-.007.012-.01v-.001c-.006.003-.009.007-.012.01a.065.065 0 0 0-.008.009.04.04 0 0 1-.009.005c0 .002-.003.004-.003.004l-.001-.128h.147l-.004.003-.008.007-.009.008c-.003.003-.006.007-.012.011l-.011.009.014-.01.012-.011.009-.009a.07.07 0 0 1 .009-.007l.006-.004v.132Zm957.261 0-.16.001v-.001c0-.001.01-.002.01-.004 0-.001 0-.003.01-.005 0-.003 0-.006.01-.009 0-.003 0-.007.01-.01v-.001c-.01.003-.01.007-.01.01-.01.003-.01.006-.01.009-.01.002-.01.004-.01.005 0 .002-.01.003-.01.004v-.128h.15v.003c-.01.002-.01.005-.01.007s-.01.005-.01.008-.01.007-.01.011c-.01.003-.01.006-.01.009l.02-.021c.01-.003.01-.006.01-.009 0-.002.01-.005.01-.007s0-.003.01-.004v.132Zm-957.327-.077-.012.013.015-.014c.002-.004.008-.007.011-.011l-.014.012Zm957.257 0c0 .004-.01.009-.01.013 0-.004.01-.009.01-.014.01-.003.01-.007.01-.011 0 .004 0 .008-.01.012Zm-454.497-.062h-8.138v-8.09h8.138v8.09Zm957.257 0h-8.14v-8.09h8.14v8.09Zm-905.361-.026h-7.992v-8.246h7.992v8.246Zm957.261 0h-8v-8.246h8v8.246Zm-1156.649-.053h-8.091v-8.138h8.091v8.138Zm957.259 0h-8.09v-8.138h8.09v8.138Zm-931.052-3.169-.001.527v2.639h-16.938v-8.303h16.939v5.137Zm957.262-4.747v7.913h-16.94v-8.303h16.94v.39ZM52.001 398.729h-8.745v-8.103l-.549-.03-.543-.03a82.49 82.49 0 0 1-.535-.029l-.531-.029-.526-.029-.518-.028-1.028-.056a73.46 73.46 0 0 0-.507-.029l-.501-.027-.501-.027-.5-.028-.498-.027-.495-.027-.492-.027-.496-.027v-8.389h16.965v16.942Zm957.259 0h-8.75v-8.103l-.546-.03-.543-.03a82.096 82.096 0 0 1-.534-.029l-.532-.029-.525-.029-.519-.028-.514-.028-.513-.028-.508-.029-.501-.027-.502-.027-.996-.055-.496-.027-.492-.027-.495-.027v-8.389h16.966v16.942Zm-289.094-8.265h-.138v-.137h.138v.137Zm957.254 0h-.13v-.137h.13v.137Zm-.11-.11v-.005c0-.002-.01-.003-.01-.004l.01.009Zm-1573.123-8.127c0 .184-.003.366-.003.551v.55c-.003.185-.003.367-.003.552v.55c-.003.185-.003.367-.003.551 0 .182 0 .367-.003.549v.553c0 .182 0 .367-.003.549v.549c0 .185-.003.367-.003.552v.549c0 .185-.003.368-.003.553v.55c-.003.183-.003.366-.003.55l-.002.414h8.287v-8.535h-8.261v.413Zm957.253 0v2.754c0 .182-.01.367-.01.549v2.752c0 .185-.01.367-.01.552v1.515h8.29v-8.535h-8.27v.413Zm-783.752 8.111h8.542v-8.541h-8.542v8.541Zm60.024-8.717c-.179.003-.362.006-.541.012l-.54.009-.543.011-.54.009c-.179.006-.361.01-.54.013-.182.003-.362.009-.544.012l-.54.008c-.179.006-.361.009-.54.012-.182.003-.361.01-.543.013l-.54.009c-.179.005-.362.008-.541.011a31.72 31.72 0 0 0-.54.012l-.543.009-.54.011-.405.009c.002.139.001.279.001.419v2.208c0 .182 0 .368.003.553v2.758c0 .185.003.37.003.552v2.067h8.545l-.009-.421-.008-.563-.009-.561-.009-.564-.009-.564a34.994 34.994 0 0 1-.012-.561l-.009-.565-.009-.563-.009-.562c-.006-.188-.009-.376-.012-.564l-.009-.564-.009-.564c-.006-.188-.009-.376-.012-.561l-.009-.564-.011-.565-.007-.421c-.139.003-.279.008-.42.01Zm582.079-8.799h-8.781v17.516h8.543v-8.676h8.678v-16.967h-8.44v8.127Zm315.159 17.516h8.54v-8.541h-8.54v8.541Zm60.02-8.717c-.18.003-.36.006-.54.012l-.54.009-.55.011-.54.009c-.17.006-.36.01-.54.013l-.54.012-.54.008c-.18.006-.36.009-.54.012-.18.003-.36.01-.54.013l-.54.009-1.08.023-.55.009-.54.011-.4.009v5.938c0 .185.01.37.01.552v2.067h8.54c0-.14 0-.281-.01-.421 0-.188 0-.375-.01-.563 0-.188 0-.376-.01-.561l-.01-1.129c-.01-.188-.01-.373-.01-.56-.01-.188-.01-.377-.01-.565-.01-.188-.01-.376-.01-.563-.01-.188-.01-.374-.01-.562-.01-.188-.01-.376-.01-.564-.01-.188-.01-.376-.01-.564-.01-.188-.01-.376-.01-.564-.01-.188-.01-.376-.01-.561-.01-.188-.01-.376-.01-.564-.01-.188-.01-.377-.01-.565-.01-.14-.01-.28-.01-.421-.14.003-.28.008-.42.01Zm582.08-8.799h-8.78v17.516h8.54v-8.676h8.68v-16.967h-8.44v8.127ZM503.095 390.291h-.126l-.002-.146c0-.003-.003-.004-.003-.005l-.004-.002h.135v.153Zm957.255-.153v.153h-.12l-.01-.146v-.007h.13Zm-.05.093c0 .005.01.01.01.014 0-.004-.01-.009-.01-.014v-.001.001Zm-957.268-.013.003.003a.014.014 0 0 0-.003-.004l-.008-.008.008.009Zm957.258 0v.003-.004c0-.003-.01-.006-.01-.008 0 .003.01.006.01.009Zm-.03-.03c0 .002.01.004.01.005 0-.002-.01-.004-.01-.005v-.004.004Zm-957.276-.023.006.005a.055.055 0 0 0-.006-.008l-.005-.005.005.008Zm957.256 0c0 .002.01.003.01.005 0-.003-.01-.006-.01-.008v-.005.008Zm-957.27-.017.008.006-.002-.002-.008-.006.002.002Zm957.26 0v.006-.008.002ZM52.002 381.65h.136v.138l-.001-.001H52v-.138l.001.001Zm957.258 0h.14v.138l-.01-.001h-.13v-.138.001Zm-957.154.104.012.014-.004-.007-.014-.015.005.008Zm957.254 0 .02.014-.01-.007-.01-.015v.008Zm-957.327-.071.017.015-.004-.006-.009-.008-.007-.004.003.003Zm957.257 0 .02.015-.01-.006-.01-.008v-.004.003Zm-913.78-.005h8.543v-8.539h-8.542v8.539Zm685.38 0h8.539v-8.539h-8.539v8.539Zm271.88 0h8.54v-8.539h-8.54v8.539Zm685.38 0h8.54v-8.539h-8.54v8.539ZM242.998 365.426c-.003.182-.003.368-.003.55v1.1c0 .185-.003.368-.003.55v1.102c0 .184-.003.366-.003.548v1.102c0 .185 0 .367-.003.549v1.65l-.003.409h8.679v8.676h8.542v-8.676h8.668v-8.524h-25.874v.964Zm26.014 16.236h8.536v-8.542h-8.536v8.542Zm199.539 0h8.545v-8.275h-8.545v8.275Zm731.699-16.236v4.952c0 .185 0 .367-.01.549v2.059h8.68v8.676h8.54v-8.676h8.67v-8.524h-25.88v.964Zm26.02 16.236h8.53v-8.542h-8.53v8.542Zm199.54 0h8.54v-8.275h-8.54v8.275ZM321.162 364.157h-8.524v8.725h8.127v8.765h8.832v-25.631h-8.435v8.141Zm957.258 0h-8.52v8.725h8.12v8.765h8.83v-25.631h-8.43v8.141Zm-844.377 9.205v.529c0 .173.003.349.003.525v.528c0 .176.003.353.003.532v1.599c.003.179.003.361.003.54v3.877h8.028v-8.536h-8.04c0 .136.001.272.003.406Zm957.257 0v1.582c0 .176.01.353.01.532v6.016h8.03v-8.536h-8.04v.406Zm-1053.048 8.107c.135 0 .27-.001.402-.003h1.588l.529-.003h6.004v-16.875h-8.523v16.881Zm957.258 0c.13 0 .27-.001.4-.003h1.59c.18 0 .35-.003.53-.003h6v-16.875h-8.52v16.881Zm-878.742-.051h8.255v-8.285h-8.255v8.285Zm957.262 0h8.25v-8.285h-8.25v8.285ZM87.07 373.001h8.306v-8.279H87.07v8.279Zm529.216 0h8.306v-8.279h-8.306v8.279Zm121.226 0h8.538v-8.539h-8.538v8.539Zm34.936 0h8.305v-8.279h-8.305v8.279Zm164.809-8.751h8.189v8.751h8.821v-16.964h-17.01v8.213Zm107.073 8.751h8.3v-8.279h-8.3v8.279Zm529.21 0h8.31v-8.279h-8.31v8.279Zm121.23 0h8.54v-8.539h-8.54v8.539Zm34.94 0h8.3v-8.279h-8.3v8.279Zm164.8-8.751h8.19v8.751h8.82v-16.964h-17.01v8.213Zm-1738.295 8.748h8.282v-8.306h-8.282v8.306Zm598.621 0h8.28v-8.306h-8.28v8.306Zm358.634 0h8.28v-8.306h-8.28v8.306Zm598.62-.919v.919h8.28v-8.306h-8.28v7.387Zm-1286.93.916.428-.009.563-.008.562-.009c.188-.003.376-.01.563-.013l1.129-.018.564-.011.561-.009.564-.01.564-.012.565-.008.563-.009c.188-.003.377-.009.562-.012l.564-.009.564-.009c.143-.005.286-.007.429-.009v-8.172h-8.745v8.327Zm957.26 0 .42-.009.57-.008.56-.009c.19-.003.38-.01.56-.013l.57-.009.56-.009.57-.011.56-.009.56-.01.57-.012a121.971 121.971 0 0 0 1.12-.017c.19-.003.38-.009.56-.012l.57-.009a650.565 650.565 0 0 0 .99-.018v-8.172h-8.74v8.327Zm-1251.998-.026h8.019v-8.262h-8.019v8.262Zm957.258 0h8.02v-8.262h-8.02v8.262Zm-714.44-8.823c-.197.008-.391.018-.582.027l-.57.029c-.188.009-.373.019-.561.027l-.552.027-.543.027-.54.028-.535.026-.528.026-.528.028-.523.026-.525.024-.523.027-1.049.053-.529.025-.534.026v8.292h16.813v-16.926h-8.191v8.208Zm957.26 0c-.2.008-.39.018-.58.027l-.57.029-.57.027-.55.027-.54.027-.54.027-.54.027-.52.026-.53.028-.52.026-.53.024-.52.027-1.05.053-.53.025-.53.026v8.292h16.81v-16.926h-8.19v8.208Zm-662.417 8.691h6.686c.183 0 .366-.003.548-.003h1.505v-8.401h-8.739v8.404Zm957.257 0h6.69c.18 0 .36-.003.55-.003h1.5v-8.401h-8.74v8.404Zm-1451.492-.096h8.257v-8.282h-8.257v8.282Zm957.252 0h8.26v-8.282h-8.26v8.282Zm-584.478-.029h8.307v-8.279h-8.307v8.279Zm957.258 0h8.31v-8.279h-8.31v8.279Zm-636.095-.003h8.153v-8.067h-8.153v8.067Zm957.255 0h8.16v-8.067h-8.16v8.067Zm-1590.482-8.384h8.302v-8.279h-8.302v8.279Zm494.512 0h8.305v-8.279h-8.305v8.279Zm462.74 0h8.31v-8.279h-8.31v8.279Zm494.52 0h8.3v-8.279h-8.3v8.279Zm-1504.087-.006.424-.007a1851303673655.392 1851303673655.392 0 0 0 1.128-.02l.564-.009c.188-.006.377-.009.565-.012.188-.002.376-.006.563-.009.188-.003.374-.006.562-.012l1.128-.018c.188-.006.376-.008.564-.011l.564-.009c.188-.006.376-.01.564-.013l.564-.009c.093-.003.188-.005.282-.006l.564-.01.283-.007.423-.007v-8.165h-8.742v8.324Zm957.257 0 .42-.007c.19-.005.38-.008.57-.011l.56-.009.57-.009c.18-.006.37-.009.56-.012l.57-.009c.18-.003.37-.006.56-.012l1.12-.018c.19-.006.38-.008.57-.011l.56-.009c.19-.006.38-.01.57-.013a650.565 650.565 0 0 1 .84-.015l.57-.01.28-.007.42-.007v-8.165h-8.74v8.324Zm-601.298-.024h8.286v-16.91h-8.286v16.91Zm121.461 0h8.283v-16.91h-8.283v16.91Zm835.797 0h8.29v-16.91h-8.29v16.91Zm121.46 0h8.28v-16.91h-8.28v16.91Zm-1503.801-.125h8.089v-8.089h-8.089v8.089Zm957.261 0h8.08v-8.089h-8.08v8.089Zm-1052.723-.054h8.15v-8.064h-8.15v8.064Zm957.257 0h8.151v-8.064h-8.151v8.064Zm-766.35-.042h8.065v-8.151h-8.065v8.151Zm190.863 0h8.067v-8.151h-8.067v8.151Zm766.393 0h8.07v-8.151h-8.07v8.151Zm190.86 0h8.07v-8.151h-8.07v8.151Zm-888.115-.029h8.283v-8.259h-8.283v8.259Zm957.255 0h8.29v-8.259h-8.29v8.259Zm-966.318-8.083h-.525c-.176.003-.353.003-.529.003h-.528c-.176.003-.352.003-.528.003h-1.066c-.179.003-.358.003-.537.003h-4.418v8.032h8.536v-8.043l-.405.002Zm957.258 0h-.53c-.17.003-.35.003-.52.003h-.53c-.18.003-.36.003-.53.003h-1.07c-.18.003-.36.003-.53.003h-4.42v8.032h8.54v-8.043l-.41.002Zm-956.733-.141a1372.928 1372.928 0 0 0 .964-.02l.54-.009c.182-.003.361-.009.54-.012.182-.003.361-.005.543-.011l.54-.01.54-.012c.182-.003.362-.006.544-.012l.54-.008c.179-.003.361-.01.54-.013l.54-.009c.182-.006.362-.009.544-.012l.54-.011.54-.009c.182-.006.361-.01.543-.013.134-.002.269-.004.404-.008v-8.258h-8.402v8.427Zm957.253 0 .43-.009c.18-.002.36-.005.54-.011l.54-.009.54-.012c.18-.003.36-.005.54-.011l.54-.01.54-.012c.18-.003.36-.006.55-.012l.54-.008c.17-.003.36-.01.54-.013l.54-.009c.18-.006.36-.009.54-.012l.54-.011.54-.009c.18-.006.36-.01.54-.013.14-.002.27-.004.41-.008v-8.258h-8.41v8.427Zm-1269.482-.351h8.139v-8.089h-8.139v8.089Zm957.252 0h8.14v-8.089h-8.14v8.089Zm-471.404-.039h16.796v-8.21l-16.796-.001v8.211Zm957.254 0h16.8v-8.211h-16.8v8.211Zm-844.701-8.766h8.262v-7.921h-8.262v7.921Zm957.261 0h8.26v-7.921h-8.26v7.921Zm-1104.589-.015h8.091v-8.091h-8.091v8.091Zm957.259 0h8.09v-8.091h-8.09v8.091Zm-1130.767-.005h8.247v-7.994h-8.247v7.994Zm957.257 0h8.25v-7.994h-8.25v7.994Zm-618.989-8.593h8.246v-7.99h-8.246v7.99Zm957.259 0h8.24v-7.99h-8.24v7.99Zm-913.796-.084h8.247v-7.992h-8.247v7.992Zm957.256 0h8.25v-7.992h-8.25v7.992Z"/></svg>